<?xml version="1.0" standalone="no"?>
<!DOCTYPE svg PUBLIC "-//W3C//DTD SVG 20010904//EN"
 "http://www.w3.org/TR/2001/REC-SVG-20010904/DTD/svg10.dtd">
<svg version="1.0" xmlns="http://www.w3.org/2000/svg"
 width="512.000000pt" height="512.000000pt" viewBox="0 0 512.000000 512.000000"
 preserveAspectRatio="xMidYMid meet">
<metadata>
Created by potrace 1.14, written by Peter Selinger 2001-2017
</metadata>
<g transform="translate(0.000000,512.000000) scale(0.100000,-0.100000)"
fill="#000000" stroke="none">
<path d="M3500 5112 c-72 -9 -227 -62 -320 -109 -237 -122 -402 -287 -516
-519 -78 -159 -105 -259 -110 -418 l-5 -129 98 6 c293 17 592 214 766 503 123
204 175 399 168 632 -1 46 2 45 -81 34z"/>
<path d="M3415 3882 c-117 -8 -267 -50 -515 -145 -309 -117 -310 -117 -650 11
-253 96 -337 116 -480 116 -135 1 -197 -6 -302 -34 -401 -105 -726 -409 -879
-821 -17 -46 -32 -92 -35 -103 -2 -10 -10 -42 -18 -70 -34 -118 -57 -306 -58
-482 -1 -84 9 -270 16 -310 2 -11 7 -41 10 -69 11 -75 16 -108 21 -125 2 -8 7
-31 10 -50 18 -112 96 -375 162 -545 120 -313 352 -692 583 -955 81 -93 219
-204 303 -244 90 -43 158 -56 264 -51 97 5 180 28 358 100 189 76 284 98 433
100 164 3 264 -19 466 -99 212 -85 259 -96 391 -97 274 -1 487 169 802 641 90
135 119 186 197 345 56 113 146 338 146 364 0 5 -28 22 -62 39 -146 70 -332
231 -425 368 -126 185 -187 382 -192 620 -5 249 62 466 207 667 63 87 188 212
281 279 l61 45 -42 54 c-222 284 -553 440 -958 452 -30 1 -73 1 -95 -1z"/>
</g>
</svg>
